<svg width="31" height="38" viewBox="0 0 31 38" fill="none" xmlns="http://www.w3.org/2000/svg">
<path d="M15.2312 0.149902C11.3124 0.154525 7.55542 1.71332 4.7844 4.48434C2.01338 7.25536 0.45459 11.0123 0.449967 14.9312C0.445273 18.1336 1.49135 21.2492 3.42772 23.7999C3.42772 23.7999 3.83084 24.3307 3.89669 24.4073L15.2312 37.7749L26.5711 24.4006C26.6302 24.3293 27.0347 23.7999 27.0347 23.7999L27.0361 23.7959C28.9715 21.2463 30.0171 18.1321 30.0125 14.9312C30.0078 11.0123 28.4491 7.25536 25.678 4.48434C22.907 1.71332 19.15 0.154525 15.2312 0.149902ZM15.2312 20.3062C14.1681 20.3062 13.1289 19.9909 12.245 19.4003C11.3611 18.8097 10.6722 17.9702 10.2654 16.9881C9.85854 16.0059 9.7521 14.9252 9.9595 13.8825C10.1669 12.8399 10.6788 11.8822 11.4305 11.1305C12.1822 10.3787 13.14 9.86683 14.1826 9.65943C15.2253 9.45203 16.306 9.55848 17.2881 9.9653C18.2703 10.3721 19.1098 11.061 19.7004 11.945C20.291 12.8289 20.6062 13.8681 20.6062 14.9312C20.6044 16.3561 20.0376 17.7223 19.03 18.7299C18.0223 19.7375 16.6562 20.3044 15.2312 20.3062Z" fill="#018ABE"/>
</svg>
